:SAMPLES-PER-SECOND 30
:FULLY-SPECIFIED
:DEGREES
185
root  -81.8716 40.6262 5.41552 66.1764 86.2911 69.5294
RightUpLeg  -16.2486 1.50557 -10.7402
RightLeg  31.4004 -3.61536 -2.61269
RightFoot  -6.26936 -0.394862 7.95142
RightToes  0.00048216 0.542163 -0.142577
Spine  11.5944 0.236674 -2.26699
Spine1  10.4062 0.49471 -2.46716
HEad  -15.7799 11.2863 -6.54992
LeftShoulder1  7.68135 -11.3778 -44.971
LeftArm  -9.37904 13.3659 -27.2617
LeftForeArm  32.8995 -22.9704 -3.40898
LeftHand  -0.25398 0.0180481 5.50724
RightShoulder  4.83251 8.18722 35.3672
RightArm  -6.52198 -21.4047 42.5441
RightForeArm  6.80965 19.7854 4.71923
RightHand  -0.172996 -4.19873 -14.8893
LeftUpLeg  1.24509 11.3061 -2.92472
LeftLeg  17.2206 16.4354 1.65111
LeftFoot  -18.9044 -0.216949 -4.99281
LeftToes  1.06247e-005 4.65855e-005 -8.185e-006
186
root  -81.6429 40.6822 5.06395 53.4409 86.6543 56.847
RightUpLeg  -17.6898 -1.63431 -7.6021
RightLeg  32.4543 -5.12848 -3.73991
RightFoot  -5.67672 -0.375069 6.79343
RightToes  0.00048216 0.542163 -0.142577
Spine  11.5324 -0.1121 -2.08615
Spine1  10.5335 0.0284905 -1.93528
HEad  -15.4401 4.41939 1.07132
LeftShoulder1  7.67717 -11.3572 -45.0102
LeftArm  -9.34278 12.7385 -27.4306
LeftForeArm  32.1334 -17.271 -3.77057
LeftHand  -0.25398 0.0180481 5.50724
RightShoulder  4.93163 8.40401 35.4455
RightArm  -4.1526 -21.5158 42.8791
RightForeArm  8.00765 20.1471 4.67827
RightHand  -0.154129 -4.26153 -13.5729
LeftUpLeg  2.22802 10.9987 -2.56868
LeftLeg  16.2833 17.2621 1.2023
LeftFoot  -19.2622 -0.244486 -5.19318
LeftToes  1.06247e-005 4.65855e-005 -8.185e-006
187
root  -81.3477 40.7002 4.72611 40.0635 86.5596 43.3909
RightUpLeg  -19.0187 -4.68256 -4.49689
RightLeg  31.8131 -5.23807 -3.73615
RightFoot  -5.19454 -0.366665 6.15598
RightToes  0.00048216 0.542163 -0.142577
Spine  11.5069 -0.318795 -2.21998
Spine1  10.3889 -0.320431 -1.43735
HEad  -14.0988 5.62151 0.83604
LeftShoulder1  7.73928 -11.4375 -45.1358
LeftArm  -10.8046 12.5118 -27.4851
LeftForeArm  33.8021 -12.5708 -4.57138
LeftHand  -0.25398 0.0180481 5.50724
RightShoulder  4.9826 8.45006 35.7075
RightArm  -1.45474 -21.4863 42.2995
RightForeArm  9.68956 20.6521 4.57634
RightHand  -0.129308 -4.34366 -11.8476
LeftUpLeg  3.23608 10.4797 -2.35593
LeftLeg  15.2947 18.413 0.493008
LeftFoot  -19.7339 -0.313062 -5.87317
LeftToes  1.06247e-005 4.65855e-005 -8.185e-006
188
root  -80.9878 40.6593 4.39616 31.9356 86.1526 35.159
RightUpLeg  -20.1015 -6.98978 -1.70345
RightLeg  29.7337 -4.25523 -2.8613
RightFoot  -5.09033 -0.39355 6.56703
RightToes  0.00048216 0.542163 -0.142577
Spine  11.577 -0.429344 -2.6965
Spine1  10.0201 -0.607368 -0.955447
HEad  -12.5974 6.26555 1.27029
LeftShoulder1  7.90488 -11.6729 -45.3976
LeftArm  -11.1038 12.627 -27.537
LeftForeArm  35.5801 -9.39681 -4.86842
LeftHand  -0.25398 0.0180481 5.50724
RightShoulder  4.9873 8.39749 35.9256
RightArm  0.550611 -21.3494 41.3419
RightForeArm  9.89858 20.9087 4.5631
RightHand  -0.127434 -4.32599 -11.3696
LeftUpLeg  4.14589 9.71103 -2.53743
LeftLeg  14.5861 19.7881 -0.114529
LeftFoot  -20.2716 -0.381948 -6.44257
LeftToes  1.06247e-005 4.65855e-005 -8.185e-006
189
root  -80.5715 40.5902 4.06442 29.234 85.9546 32.4816
RightUpLeg  -20.8027 -8.64161 0.804953
RightLeg  26.6961 -3.17276 -1.95604
RightFoot  -5.23633 -0.417979 7.15795
RightToes  0.00048216 0.542163 -0.142577
Spine  11.8004 -0.684094 -3.25393
Spine1  9.72751 -1.08763 -0.368569
HEad  -11.4988 6.85425 1.34827
LeftShoulder1  8.09773 -11.936 -45.726
LeftArm  -10.5276 12.7913 -27.6554
LeftForeArm  37.0183 -7.69425 -4.97443
LeftHand  -0.25398 0.0180481 5.50724
RightShoulder  4.98962 8.44145 35.7944
RightArm  1.21207 -21.1219 40.5532
RightForeArm  8.08429 20.8519 4.67406
RightHand  -0.091697 -4.75852 -12.5508
LeftUpLeg  5.17838 8.76311 -2.94987
LeftLeg  13.9189 21.0588 -0.587372
LeftFoot  -20.7708 -0.425333 -6.66143
LeftToes  1.06247e-005 4.65855e-005 -8.185e-006
190
root  -80.1112 40.5119 3.73589 29.819 85.9941 33.0494
RightUpLeg  -21.5257 -10.0428 3.13424
RightLeg  23.2646 -2.46183 -1.3748
RightFoot  -5.26786 -0.414815 7.13317
RightToes  0.00048216 0.542163 -0.142577
Spine  12.0701 -1.0309 -3.78158
Spine1  9.63281 -1.67669 0.281147
HEad  -11.3286 6.67247 0.898122
LeftShoulder1  8.23771 -12.1093 -46.01
LeftArm  -9.83739 12.7158 -27.7802
LeftForeArm  37.9581 -7.21274 -5.15848
LeftHand  -0.25398 0.0180481 5.50724
RightShoulder  4.98829 8.54509 35.4313
RightArm  0.941213 -20.8187 40.014
RightForeArm  5.36038 20.8412 4.80726
RightHand  -0.0418628 -5.26807 -14.4579
LeftUpLeg  6.24324 7.8987 -3.47415
LeftLeg  13.0964 22.0681 -1.0854
LeftFoot  -21.1217 -0.438174 -6.59561
LeftToes  1.06247e-005 4.65855e-005 -8.185e-006
191
root  -79.5971 40.4049 3.40966 34.0801 86.0703 37.217
RightUpLeg  -22.3644 -11.5765 5.23758
RightLeg  19.7733 -1.63056 -0.892569
RightFoot  -5.1922 -0.418972 7.13162
RightToes  0.00048216 0.542163 -0.142577
Spine  12.4323 -1.2626 -4.26143
Spine1  9.58875 -2.08745 0.72614
HEad  -11.6745 5.53736 0.592053
LeftShoulder1  8.33614 -12.2373 -46.1869
LeftArm  -9.31436 12.3155 -27.8664
LeftForeArm  38.3162 -7.68265 -5.39217
LeftHand  -0.25398 0.0180481 5.50724
RightShoulder  4.94846 8.52395 35.1778
RightArm  0.665707 -20.5434 39.483
RightForeArm  3.75397 21.1187 4.84375
RightHand  -0.149444 -4.41588 -15.4883
LeftUpLeg  7.19866 7.25553 -4.19697
LeftLeg  12.4461 22.827 -1.54039
LeftFoot  -21.3249 -0.403322 -6.07679
LeftToes  1.06247e-005 4.65855e-005 -8.185e-006
